<svg width="16" height="17" viewBox="0 0 16 17" fill="none" xmlns="http://www.w3.org/2000/svg">
<path fill-rule="evenodd" clip-rule="evenodd" d="M5.3335 9.49967C5.3335 9.13148 5.63197 8.83301 6.00016 8.83301H10.0002C10.3684 8.83301 10.6668 9.13148 10.6668 9.49967C10.6668 9.86786 10.3684 10.1663 10.0002 10.1663H6.00016C5.63197 10.1663 5.3335 9.86786 5.3335 9.49967Z" fill="#424551"/>
<path fill-rule="evenodd" clip-rule="evenodd" d="M5.3335 11.9997C5.3335 11.6315 5.63197 11.333 6.00016 11.333H8.00016C8.36835 11.333 8.66683 11.6315 8.66683 11.9997C8.66683 12.3679 8.36835 12.6663 8.00016 12.6663H6.00016C5.63197 12.6663 5.3335 12.3679 5.3335 11.9997Z" fill="#424551"/>
<path fill-rule="evenodd" clip-rule="evenodd" d="M6.02877 1.52827C6.1538 1.40325 6.32337 1.33301 6.50018 1.33301H11.0002C12.4729 1.33301 13.6668 2.52692 13.6668 3.99967L13.6668 12.9997C13.6668 14.4724 12.4729 15.6663 11.0002 15.6663H5.00016C3.5274 15.6663 2.33349 14.4724 2.3335 12.9997L2.33351 5.49967C2.33351 5.32286 2.40375 5.15329 2.52877 5.02827L6.02877 1.52827ZM6.33349 3.10917V5.33301H4.10965L6.33349 3.10917ZM3.66684 6.66634L3.66683 12.9997C3.66683 13.7361 4.26378 14.333 5.00016 14.333H11.0002C11.7366 14.333 12.3335 13.7361 12.3335 12.9997L12.3335 3.99967C12.3335 3.26329 11.7366 2.66634 11.0002 2.66634H7.66682V5.99967C7.66682 6.36786 7.36835 6.66634 7.00016 6.66634H3.66684Z" fill="#424551"/>
</svg>
