<svg width="16" height="17" viewBox="0 0 16 17" fill="none" xmlns="http://www.w3.org/2000/svg">
<path fill-rule="evenodd" clip-rule="evenodd" d="M10.7117 7.441C11.4099 7.97466 11.4099 9.02605 10.7117 9.5597L7.65841 11.8933C6.78101 12.5639 5.51541 11.9383 5.51541 10.834V6.16673C5.51541 5.06241 6.78101 4.43678 7.65841 5.10738L10.7117 7.441ZM9.90204 8.50035L6.84875 6.16673L6.84875 10.834L9.90204 8.50035Z" fill="#424551"/>
<path fill-rule="evenodd" clip-rule="evenodd" d="M7.99984 2.50033C4.68613 2.50033 1.99984 5.18662 1.99984 8.50033C1.99984 11.814 4.68613 14.5003 7.99984 14.5003C11.3135 14.5003 13.9998 11.814 13.9998 8.50033C13.9998 5.18662 11.3135 2.50033 7.99984 2.50033ZM0.666504 8.50033C0.666504 4.45024 3.94975 1.16699 7.99984 1.16699C12.0499 1.16699 15.3332 4.45024 15.3332 8.50033C15.3332 12.5504 12.0499 15.8337 7.99984 15.8337C3.94975 15.8337 0.666504 12.5504 0.666504 8.50033Z" fill="#424551"/>
</svg>
