<svg width="15" height="16" viewBox="0 0 15 16" fill="none" xmlns="http://www.w3.org/2000/svg">
<path fill-rule="evenodd" clip-rule="evenodd" d="M8.9547 2.16732C8.86168 2.16732 8.77547 2.21676 8.72843 2.29736L8.72433 2.30438L5.66683 7.26115V13.834H11.3907C11.5135 13.834 11.6198 13.7487 11.6464 13.629L11.6487 13.6186L13.3487 6.97883C13.3798 6.8179 13.2565 6.66732 13.0915 6.66732H10.5002C10.066 6.66732 9.62677 6.52228 9.30696 6.21014C8.97075 5.88199 8.81488 5.41203 8.91491 4.90572L9.39414 2.48001C9.42614 2.31806 9.30219 2.16732 9.13725 2.16732H8.9547ZM4.3335 13.834V7.73875H1.97118C1.82739 7.73875 1.7104 7.85476 1.70929 7.99872C1.70929 7.99872 1.70929 7.99872 1.70929 7.99872L1.66684 13.5701C1.66572 13.7154 1.78327 13.834 1.92868 13.834H4.3335ZM4.62809 6.40541L7.58155 1.61731C7.86843 1.13222 8.39032 0.833984 8.9547 0.833984H9.13725C10.1424 0.833984 10.897 1.75237 10.7022 2.73844L10.223 5.16415C10.2144 5.20732 10.22 5.22693 10.2213 5.23124C10.2228 5.23604 10.226 5.24402 10.2383 5.25596C10.2661 5.28317 10.3492 5.33398 10.5002 5.33398H13.0915C14.1121 5.33398 14.8701 6.27923 14.6487 7.27539L14.6464 7.28579L12.9453 13.93C12.7788 14.6537 12.1343 15.1673 11.3907 15.1673H1.92868C1.04298 15.1673 0.326756 14.4457 0.333544 13.56C0.333544 13.56 0.333544 13.56 0.333544 13.56L0.375993 7.98854C0.38271 7.11235 1.09485 6.40541 1.97118 6.40541H4.62809Z" fill="#9A9CA5"/>
</svg>
