<svg width="15" height="16" viewBox="0 0 15 16" fill="none" xmlns="http://www.w3.org/2000/svg">
<path fill-rule="evenodd" clip-rule="evenodd" d="M7.20184 0.736397C7.38953 0.642555 7.61044 0.642555 7.79813 0.736397L14.4648 4.06973C14.6906 4.18266 14.8333 4.4135 14.8333 4.66602C14.8333 4.91853 14.6906 5.14937 14.4648 5.2623L7.79813 8.59563C7.61044 8.68948 7.38953 8.68948 7.20184 8.59563L0.535174 5.2623C0.309318 5.14937 0.16665 4.91853 0.16665 4.66602C0.16665 4.4135 0.309318 4.18266 0.535174 4.06973L7.20184 0.736397ZM2.32403 4.66602L7.49998 7.25399L12.6759 4.66602L7.49998 2.07804L2.32403 4.66602Z" fill="#9A9CA5"/>
<path fill-rule="evenodd" clip-rule="evenodd" d="M0.237032 7.70121C0.401691 7.37189 0.80214 7.2384 1.13146 7.40306L7.49998 10.5873L13.8685 7.40306C14.1978 7.2384 14.5983 7.37189 14.7629 7.70121C14.9276 8.03052 14.7941 8.43097 14.4648 8.59563L7.79813 11.929C7.61044 12.0228 7.38953 12.0228 7.20184 11.929L0.535174 8.59563C0.205855 8.43097 0.0723723 8.03052 0.237032 7.70121Z" fill="#9A9CA5"/>
<path fill-rule="evenodd" clip-rule="evenodd" d="M0.237032 11.0345C0.401691 10.7052 0.80214 10.5717 1.13146 10.7364L7.49998 13.9207L13.8685 10.7364C14.1978 10.5717 14.5983 10.7052 14.7629 11.0345C14.9276 11.3639 14.7941 11.7643 14.4648 11.929L7.79813 15.2623C7.61044 15.3561 7.38953 15.3561 7.20184 15.2623L0.535174 11.929C0.205855 11.7643 0.0723723 11.3639 0.237032 11.0345Z" fill="#9A9CA5"/>
</svg>
