<svg width="20" height="20" viewBox="0 0 20 20" fill="none" xmlns="http://www.w3.org/2000/svg">
<path fill-rule="evenodd" clip-rule="evenodd" d="M9.99992 0.833984C10.4602 0.833984 10.8333 1.20708 10.8333 1.66732V9.16732H18.3333C18.7935 9.16732 19.1666 9.54041 19.1666 10.0007C19.1666 10.4609 18.7935 10.834 18.3333 10.834H10.8333V18.334C10.8333 18.7942 10.4602 19.1673 9.99992 19.1673C9.53968 19.1673 9.16658 18.7942 9.16658 18.334V10.834H1.66659C1.20635 10.834 0.833252 10.4609 0.833252 10.0007C0.833252 9.54041 1.20635 9.16732 1.66659 9.16732H9.16658V1.66732C9.16658 1.20708 9.53968 0.833984 9.99992 0.833984Z" fill="#FF3F3A"/>
</svg>
